<svg version="1.1" xmlns="http://www.w3.org/2000/svg" viewBox="20 20 40 80" xml:space="preserve">
	<style type="text/css">
		.letter{
			stroke:#991E37;
			stroke-width:0.3;
			fill:#991E37;
			stroke-dasharray: 81.03607177734375px;
			stroke-dashoffset: 81.03607177734375px;
			animation: 5s draw-and-fill;
		}
		@keyframes draw-and-fill {
			0% {
				fill-opacity: 0;
			}
			60% {
				fill-opacity: 0;
				stroke-width: 0.3;
				stroke-dashoffset: 0;
			}
			100% {
				fill-opacity: 1;
				stroke-width: 0;
				stroke-dashoffset: 0;
			}
		}
	</style>
    <g transform="translate(32 0)">
		<path class="letter"
              d="M5.9,66.1c-0.7,0.9-1.3,1.6-1.3,1.8c0,0.4,0.9,0.4,1.4,0.4c2.9,0,5.4-0.3,7.5-2.4c0.2-0.2,0.3-0.3,0.4-0.3 c0.1,0,0.1,0.1,0.1,0.1c0,0.2-0.1,0.5-0.2,0.7L12.8,69H0.3L9,57.9c0.3-0.4,0.6-0.8,0.6-1c0-0.5-0.8-0.5-1.6-0.5 c-3,0-4.7,0.2-6.7,2.6c-0.1,0-0.1,0.2-0.2,0.2c0,0,0-0.1,0-0.1c0-0.2,0-0.3,0.1-0.4l1-2.8h11.3L5.9,66.1z"/>
	</g>
</svg>
